<svg width="16" height="15" viewBox="0 0 16 15" fill="none" xmlns="http://www.w3.org/2000/svg">
<path d="M15.8398 7.25C15.8398 7.74219 15.4531 8.12891 14.9961 8.12891H3.04297L7.71875 12.5586C8.07031 12.875 8.07031 13.4375 7.75391 13.7539C7.4375 14.1055 6.91016 14.1055 6.55859 13.7891L0.371094 7.88281C0.195312 7.70703 0.125 7.49609 0.125 7.25C0.125 7.03906 0.195312 6.82812 0.371094 6.65234L6.55859 0.746094C6.91016 0.429688 7.4375 0.429688 7.75391 0.78125C8.07031 1.09766 8.07031 1.66016 7.71875 1.97656L3.04297 6.40625H14.9961C15.4883 6.40625 15.8398 6.79297 15.8398 7.25Z" fill="white"/>
</svg>
