<svg width="33" height="27" viewBox="0 0 33 27" fill="none" xmlns="http://www.w3.org/2000/svg">
<path d="M1.625 1.5625C1.625 1.15625 1.98047 0.75 2.4375 0.75H23.5625C23.9688 0.75 24.375 1.15625 24.375 1.5625C24.375 2.01953 23.9688 2.375 23.5625 2.375H2.4375C1.98047 2.375 1.625 2.01953 1.625 1.5625ZM0.8125 4.8125C0.8125 4.40625 1.16797 4 1.625 4H24.375C24.7812 4 25.1875 4.40625 25.1875 4.8125C25.1875 5.26953 24.7812 5.625 24.375 5.625H1.625C1.16797 5.625 0.8125 5.26953 0.8125 4.8125ZM22.9531 7.25C24.6289 7.25 25.8984 8.72266 25.7461 10.3984V10.5508C25.543 10.5508 25.3398 10.5 25.1875 10.5C24.832 10.5 24.4766 10.5508 24.1211 10.6016L24.1719 10.2461C24.2227 9.53516 23.6641 8.875 22.9531 8.875H2.99609C2.28516 8.875 1.72656 9.53516 1.77734 10.2461L3.04688 24.0586C3.09766 24.668 3.65625 25.125 4.26562 25.125H18.2812C18.7891 25.7852 19.3477 26.293 20.0078 26.75H4.26562C2.79297 26.75 1.57422 25.6328 1.42188 24.2109L0.203125 10.3984C0.0507812 8.72266 1.32031 7.25 2.99609 7.25H22.9531ZM13 10.5C15.4375 10.5 17.6719 11.4141 19.1953 12.8359C18.7891 13.1914 18.3828 13.5977 18.0781 14.0039C16.9609 12.9375 15.1836 12.125 13 12.125C9.03906 12.125 6.5 14.6641 6.5 17C6.5 19.3867 9.03906 21.875 13 21.875C14.2695 21.875 15.4375 21.6211 16.4023 21.1641C16.5039 21.7227 16.6562 22.2305 16.8594 22.7383C15.6914 23.2461 14.3711 23.5 13 23.5C8.48047 23.5 4.875 20.6055 4.875 17C4.875 13.4453 8.48047 10.5 13 10.5ZM11.7812 17.2031C11.7812 16.6445 12.2891 16.1875 13 16.1875C13.6602 16.1875 14.2188 16.6445 14.2188 17.2031C14.2188 17.7617 13.6602 18.2188 13 18.2188C12.2891 18.2188 11.7812 17.7617 11.7812 17.2031ZM26 18.625H28.4375C28.8438 18.625 29.25 19.0312 29.25 19.4375C29.25 19.8945 28.8438 20.25 28.4375 20.25H26V22.6875C26 23.1445 25.5938 23.5 25.1875 23.5C24.7305 23.5 24.375 23.1445 24.375 22.6875V20.25H21.9375C21.4805 20.25 21.125 19.8945 21.125 19.4375C21.125 19.0312 21.4805 18.625 21.9375 18.625H24.375V16.1875C24.375 15.7812 24.7305 15.375 25.1875 15.375C25.5938 15.375 26 15.7812 26 16.1875V18.625ZM32.5 19.4375C32.5 23.5 29.1992 26.75 25.1875 26.75C21.125 26.75 17.875 23.5 17.875 19.4375C17.875 15.4258 21.125 12.125 25.1875 12.125C29.1992 12.125 32.5 15.4258 32.5 19.4375ZM25.1875 13.75C22.0391 13.75 19.5 16.3398 19.5 19.4375C19.5 22.5859 22.0391 25.125 25.1875 25.125C28.2852 25.125 30.875 22.5859 30.875 19.4375C30.875 16.3398 28.2852 13.75 25.1875 13.75Z" fill="#34C94B"/>
</svg>
