<svg width="27" height="24" viewBox="0 0 27 24" fill="none" xmlns="http://www.w3.org/2000/svg">
<path d="M21.6836 13.6289C21.3789 13.3242 20.8203 13.3242 20.5156 13.6289C20.2109 13.9336 20.2109 14.4922 20.5156 14.7969L23.207 17.4375H17.0625C16.8086 17.4375 16.5547 17.3359 16.4023 17.1328L14.4219 14.543C14.168 14.1875 13.6602 14.0859 13.3047 14.3906C12.9492 14.6445 12.8477 15.1523 13.1523 15.5078L15.082 18.0977C15.5391 18.707 16.25 19.0625 17.0625 19.0625H23.207L20.5156 21.7539C20.2109 22.0586 20.2109 22.6172 20.5156 22.9219C20.668 23.0742 20.8711 23.125 21.125 23.125C21.3281 23.125 21.5312 23.0742 21.6836 22.9219L25.7461 18.8594C26.0508 18.5547 26.0508 17.9961 25.7461 17.6914L21.6836 13.6289ZM17.0625 6.0625H23.207L20.5156 8.75391C20.2109 9.05859 20.2109 9.61719 20.5156 9.92188C20.668 10.0742 20.8711 10.125 21.125 10.125C21.3281 10.125 21.5312 10.0742 21.6836 9.92188L25.7461 5.85938C26.0508 5.55469 26.0508 4.99609 25.7461 4.69141L21.6836 0.628906C21.3789 0.324219 20.8203 0.324219 20.5156 0.628906C20.2109 0.933594 20.2109 1.49219 20.5156 1.79688L23.207 4.4375H17.0625C16.25 4.4375 15.5391 4.84375 15.082 5.45312L6.29688 17.1328C6.14453 17.3359 5.94141 17.4375 5.6875 17.4375H0.8125C0.355469 17.4375 0 17.8438 0 18.25C0 18.707 0.355469 19.0625 0.8125 19.0625H5.6875C6.44922 19.0625 7.16016 18.707 7.61719 18.0977L16.4023 6.41797C16.5547 6.21484 16.8086 6.0625 17.0625 6.0625ZM0.8125 6.0625H5.6875C5.94141 6.0625 6.14453 6.21484 6.29688 6.41797L8.27734 9.00781C8.42969 9.21094 8.68359 9.3125 8.9375 9.3125C9.08984 9.3125 9.24219 9.26172 9.39453 9.16016C9.75 8.90625 9.85156 8.39844 9.54688 8.04297L7.61719 5.45312C7.16016 4.84375 6.44922 4.4375 5.6875 4.4375H0.8125C0.355469 4.4375 0 4.84375 0 5.25C0 5.70703 0.355469 6.0625 0.8125 6.0625Z" fill="white"/>
</svg>
